<svg xmlns="http://www.w3.org/2000/svg" version="1.1" xmlns:xlink="http://www.w3.org/1999/xlink" xmlns:svgjs="http://svgjs.dev/svgjs" width="2000" height="1247" viewBox="0 0 2000 1247"><g transform="matrix(1,0,0,1,-1.2121212121212466,0.504858299595071)"><svg viewBox="0 0 396 247" data-background-color="#ffffff" preserveAspectRatio="xMidYMid meet" height="1247" width="2000" xmlns="http://www.w3.org/2000/svg" xmlns:xlink="http://www.w3.org/1999/xlink"><g id="tight-bounds" transform="matrix(1,0,0,1,0.2400000000000091,-0.09999999999999432)"><svg viewBox="0 0 395.52 247.2" height="247.2" width="395.52"><g><svg></svg></g><g><svg viewBox="0 0 395.52 247.2" height="247.2" width="395.52"><g transform="matrix(1,0,0,1,75.54432000000001,48.82865628924834)"><svg viewBox="0 0 244.43135999999996 149.5426874215033" height="149.5426874215033" width="244.43135999999996"><g><svg viewBox="0 0 244.43136 149.54268742150333" height="149.5426874215033" width="244.43135999999996"><g><svg viewBox="0 0 244.43136 149.54268742150333" height="149.54268742150333" width="244.43136"><g id="textblocktransform"><svg viewBox="0 0 244.43136 149.54268742150333" height="149.54268742150333" width="244.43136" id="textblock"><g><svg viewBox="0 0 244.43136 149.54268742150333" height="149.54268742150333" width="244.43136"><g transform="matrix(1,0,0,1,0,0)"><svg width="244.43136" viewBox="3 -31.55 52.55 32.150000000000006" height="149.54268742150333" data-palette-color="#000000"><path d="M8.05 0.6L3 0.6 3-22.5 7.55-22.5 7.55-27 12.05-27 12.05-31.55 17.15-31.55 17.15-27 21.65-27 21.65-22.5 26.25-22.5 26.25 0.6 21.15 0.6 21.15-8.45 8.05-8.45 8.05 0.6ZM8.05-22L8.05-13.5 21.15-13.5 21.15-22 16.65-22 16.65-26.5 12.55-26.5 12.55-22 8.05-22ZM37.35 0.6L32.3 0.6 32.3-27 36.85-27 36.85-31.55 50.95-31.55 50.95-27 55.55-27 55.55-13 50.95-13 50.95-8.45 37.35-8.45 37.35 0.6ZM37.35-26.5L37.35-13.5 50.45-13.5 50.45-26.5 37.35-26.5Z" opacity="1" transform="matrix(1,0,0,1,0,0)" fill="#000000" class="wordmark-text-0" data-fill-palette-color="primary" id="text-0"></path></svg></g></svg></g></svg></g></svg></g></svg></g></svg></g><path d="M257.02 42.829L257.02 0.256 10.332 0.256 10.332 246.944 257.02 246.944 257.02 204.371 243.534 204.371 243.534 233.458 23.818 233.458 23.818 13.742 243.534 13.742 243.534 42.829Z" fill="#000000" stroke="transparent" data-fill-palette-color="tertiary"></path></svg></g><defs></defs></svg><rect width="395.52" height="247.2" fill="none" stroke="none" visibility="hidden"></rect></g></svg></g></svg>