<?xml version="1.0" standalone="no"?>
<!DOCTYPE svg PUBLIC "-//W3C//DTD SVG 20010904//EN"
 "http://www.w3.org/TR/2001/REC-SVG-20010904/DTD/svg10.dtd">
<svg version="1.0" xmlns="http://www.w3.org/2000/svg"
 width="500.000000pt" height="500.000000pt" viewBox="0 0 500.000000 500.000000"
 preserveAspectRatio="xMidYMid meet">

<g transform="translate(0.000000,500.000000) scale(0.100000,-0.100000)"
fill="#000000" stroke="none">
<path d="M180 4855 c0 -11 1003 -1685 1009 -1685 7 0 226 363 236 392 5 11
-76 155 -249 443 l-255 426 1052 -3 1052 -3 120 -33 c496 -136 860 -523 971
-1033 15 -65 19 -126 19 -269 0 -168 -3 -195 -27 -292 -129 -507 -491 -869
-1003 -1000 -67 -17 -121 -21 -343 -25 l-264 -5 -32 -52 c-18 -28 -181 -300
-362 -603 l-329 -553 -513 0 -513 0 13 24 c46 83 1733 2896 1738 2896 3 0 178
-289 389 -642 211 -354 385 -645 387 -647 9 -11 190 124 256 191 l77 77 -498
833 -499 833 -112 0 -112 0 -1189 -1988 c-654 -1094 -1189 -1990 -1189 -1993
0 -2 452 -4 1003 -4 l1004 0 358 600 357 600 80 0 c246 0 521 64 757 177 51
24 94 43 96 41 2 -2 134 -226 294 -498 l290 -495 -682 -5 -681 -5 -123 -205
-123 -205 1172 -3 c644 -1 1173 0 1175 2 2 2 -218 378 -488 836 l-491 832 44
47 c304 317 479 700 507 1113 51 764 -374 1455 -1079 1753 -106 44 -231 82
-377 112 -69 15 -237 17 -1500 20 -783 2 -1423 1 -1423 -2z"/>
</g>
</svg>
